<svg xmlns="http://www.w3.org/2000/svg" enable-background="new 0 0 512 512" viewBox="0 0 512 512"><circle cx="256" cy="256" r="256" fill="#045a84"/><path fill="#fff" d="M407.8,383h-68.4v-99.7c0-35.5-19-35.5-25.2-35.5c-16.6,0-23.7,13.1-26,18.7c-1.1,2.7-1.6,6.8-1.6,12.7V383
			h-68.4l0-4.7c0-1.6,0.8-161.1,0-177.4l-0.2-4.9h68.6v16c9.6-10.5,24.4-20.2,48.6-20.2c45.5,0,72.7,31.6,72.7,84.6V383z
			 M348.7,373.7h49.7v-97.2c0-47.8-23.1-75.3-63.3-75.3c-27.2,0-40.3,13.7-48.6,26.1v3.9H274l3.2-6.6v-19.1h-49.6
			c0.5,28.3,0,143.1-0.1,168.3h49.7v-94.6c0-7.2,0.7-12.3,2.3-16.2c6.2-15.3,19.1-24.5,34.6-24.5c12.9,0,34.6,5.8,34.6,44.8V373.7z
			 M194.8,383h-68.4V196h68.4V383z M135.7,373.7h49.7V205.3h-49.7V373.7z M160.6,181.1c-22,0-37.7-14.9-37.7-35.4
			c0-20.5,16-35.4,38.1-35.4c21.7,0,37.2,14.5,37.7,35.3C198.7,166.2,182.7,181.1,160.6,181.1z M161,119.7
			c-16.9,0-28.8,10.7-28.8,26c0,15.3,11.5,26,28,26c17.3,0,29.1-10.7,29.1-26C189,129.9,177.9,119.7,161,119.7z"/></svg>