<svg id="visual" viewBox="0 0 900 600" width="900" height="600" xmlns="http://www.w3.org/2000/svg" xmlns:xlink="http://www.w3.org/1999/xlink" version="1.1"><path d="M0 43L11.5 43C23 43 46 43 69 41C92 39 115 35 138.2 38C161.3 41 184.7 51 207.8 55C231 59 254 57 277 54C300 51 323 47 346 45C369 43 392 43 415.2 41C438.3 39 461.7 35 484.8 38C508 41 531 51 554 52C577 53 600 45 623 44C646 43 669 49 692.2 51C715.3 53 738.7 51 761.8 50C785 49 808 49 831 47C854 45 877 41 888.5 39L900 37L900 0L888.5 0C877 0 854 0 831 0C808 0 785 0 761.8 0C738.7 0 715.3 0 692.2 0C669 0 646 0 623 0C600 0 577 0 554 0C531 0 508 0 484.8 0C461.7 0 438.3 0 415.2 0C392 0 369 0 346 0C323 0 300 0 277 0C254 0 231 0 207.8 0C184.7 0 161.3 0 138.2 0C115 0 92 0 69 0C46 0 23 0 11.5 0L0 0Z" fill="#377ebb"></path><path d="M0 97L11.5 96C23 95 46 93 69 91C92 89 115 87 138.2 93C161.3 99 184.7 113 207.8 118C231 123 254 119 277 115C300 111 323 107 346 103C369 99 392 95 415.2 92C438.3 89 461.7 87 484.8 93C508 99 531 113 554 117C577 121 600 115 623 108C646 101 669 93 692.2 92C715.3 91 738.7 97 761.8 99C785 101 808 99 831 93C854 87 877 77 888.5 72L900 67L900 35L888.5 37C877 39 854 43 831 45C808 47 785 47 761.8 48C738.7 49 715.3 51 692.2 49C669 47 646 41 623 42C600 43 577 51 554 50C531 49 508 39 484.8 36C461.7 33 438.3 37 415.2 39C392 41 369 41 346 43C323 45 300 49 277 52C254 55 231 57 207.8 53C184.7 49 161.3 39 138.2 36C115 33 92 37 69 39C46 41 23 41 11.5 41L0 41Z" fill="#3f8dcf"></path><path d="M0 187L11.5 180C23 173 46 159 69 152C92 145 115 145 138.2 155C161.3 165 184.7 185 207.8 191C231 197 254 189 277 184C300 179 323 177 346 175C369 173 392 171 415.2 170C438.3 169 461.7 169 484.8 175C508 181 531 193 554 192C577 191 600 177 623 172C646 167 669 171 692.2 176C715.3 181 738.7 187 761.8 184C785 181 808 169 831 156C854 143 877 129 888.5 122L900 115L900 65L888.5 70C877 75 854 85 831 91C808 97 785 99 761.8 97C738.7 95 715.3 89 692.2 90C669 91 646 99 623 106C600 113 577 119 554 115C531 111 508 97 484.8 91C461.7 85 438.3 87 415.2 90C392 93 369 97 346 101C323 105 300 109 277 113C254 117 231 121 207.8 116C184.7 111 161.3 97 138.2 91C115 85 92 87 69 89C46 91 23 93 11.5 94L0 95Z" fill="#479ce3"></path><path d="M0 355L11.5 337C23 319 46 283 69 275C92 267 115 287 138.2 305C161.3 323 184.7 339 207.8 338C231 337 254 319 277 310C300 301 323 301 346 314C369 327 392 353 415.2 346C438.3 339 461.7 299 484.8 285C508 271 531 283 554 284C577 285 600 275 623 283C646 291 669 317 692.2 333C715.3 349 738.7 355 761.8 349C785 343 808 325 831 311C854 297 877 287 888.5 282L900 277L900 113L888.5 120C877 127 854 141 831 154C808 167 785 179 761.8 182C738.7 185 715.3 179 692.2 174C669 169 646 165 623 170C600 175 577 189 554 190C531 191 508 179 484.8 173C461.7 167 438.3 167 415.2 168C392 169 369 171 346 173C323 175 300 177 277 182C254 187 231 195 207.8 189C184.7 183 161.3 163 138.2 153C115 143 92 143 69 150C46 157 23 171 11.5 178L0 185Z" fill="#4facf7"></path><path d="M0 511L11.5 501C23 491 46 471 69 456C92 441 115 431 138.2 439C161.3 447 184.7 473 207.8 478C231 483 254 467 277 463C300 459 323 467 346 472C369 477 392 479 415.2 470C438.3 461 461.7 441 484.8 436C508 431 531 441 554 449C577 457 600 463 623 463C646 463 669 457 692.2 458C715.3 459 738.7 467 761.8 460C785 453 808 431 831 433C854 435 877 461 888.5 474L900 487L900 275L888.5 280C877 285 854 295 831 309C808 323 785 341 761.8 347C738.7 353 715.3 347 692.2 331C669 315 646 289 623 281C600 273 577 283 554 282C531 281 508 269 484.8 283C461.7 297 438.3 337 415.2 344C392 351 369 325 346 312C323 299 300 299 277 308C254 317 231 335 207.8 336C184.7 337 161.3 321 138.2 303C115 285 92 265 69 273C46 281 23 317 11.5 335L0 353Z" fill="#65b5f8"></path><path d="M0 565L11.5 561C23 557 46 549 69 546C92 543 115 545 138.2 548C161.3 551 184.7 555 207.8 551C231 547 254 535 277 535C300 535 323 547 346 554C369 561 392 563 415.2 556C438.3 549 461.7 533 484.8 530C508 527 531 537 554 544C577 551 600 555 623 558C646 561 669 563 692.2 564C715.3 565 738.7 565 761.8 558C785 551 808 537 831 534C854 531 877 539 888.5 543L900 547L900 485L888.5 472C877 459 854 433 831 431C808 429 785 451 761.8 458C738.7 465 715.3 457 692.2 456C669 455 646 461 623 461C600 461 577 455 554 447C531 439 508 429 484.8 434C461.7 439 438.3 459 415.2 468C392 477 369 475 346 470C323 465 300 457 277 461C254 465 231 481 207.8 476C184.7 471 161.3 445 138.2 437C115 429 92 439 69 454C46 469 23 489 11.5 499L0 509Z" fill="#79bdf8"></path><path d="M0 601L11.5 601C23 601 46 601 69 601C92 601 115 601 138.2 601C161.3 601 184.7 601 207.8 601C231 601 254 601 277 601C300 601 323 601 346 601C369 601 392 601 415.2 601C438.3 601 461.7 601 484.8 601C508 601 531 601 554 601C577 601 600 601 623 601C646 601 669 601 692.2 601C715.3 601 738.7 601 761.8 601C785 601 808 601 831 601C854 601 877 601 888.5 601L900 601L900 545L888.5 541C877 537 854 529 831 532C808 535 785 549 761.8 556C738.7 563 715.3 563 692.2 562C669 561 646 559 623 556C600 553 577 549 554 542C531 535 508 525 484.8 528C461.7 531 438.3 547 415.2 554C392 561 369 559 346 552C323 545 300 533 277 533C254 533 231 545 207.8 549C184.7 553 161.3 549 138.2 546C115 543 92 541 69 544C46 547 23 555 11.5 559L0 563Z" fill="#8bc6f9"></path></svg>